<svg width="24" height="24" viewBox="0 0 24 24" fill="none" xmlns="http://www.w3.org/2000/svg">
<path d="M12 20C10.9028 20 9.86806 19.7917 8.89583 19.375C7.92361 18.9583 7.07292 18.3854 6.34375 17.6562C5.61458 16.9271 5.04167 16.0764 4.625 15.1042C4.20833 14.1319 4 13.0972 4 12C4 10.8889 4.20833 9.85069 4.625 8.88542C5.04167 7.92014 5.61458 7.07292 6.34375 6.34375C7.07292 5.61458 7.92361 5.04167 8.89583 4.625C9.86806 4.20833 10.9028 4 12 4C13.1111 4 14.1493 4.20833 15.1146 4.625C16.0799 5.04167 16.9271 5.61458 17.6562 6.34375C18.3854 7.07292 18.9583 7.92014 19.375 8.88542C19.7917 9.85069 20 10.8889 20 12C20 13.0972 19.7917 14.1319 19.375 15.1042C18.9583 16.0764 18.3854 16.9271 17.6562 17.6562C16.9271 18.3854 16.0799 18.9583 15.1146 19.375C14.1493 19.7917 13.1111 20 12 20ZM12 18.4375C12.2361 18.2014 12.4722 17.7604 12.7083 17.1146C12.9444 16.4688 13.125 15.7639 13.25 15H10.75C10.875 15.7639 11.0556 16.4688 11.2917 17.1146C11.5278 17.7604 11.7639 18.2014 12 18.4375ZM10.1042 18.2292C9.90972 17.8125 9.73958 17.3333 9.59375 16.7917C9.44792 16.25 9.32639 15.6528 9.22917 15H6.25C6.65278 15.7917 7.1875 16.4688 7.85417 17.0312C8.52083 17.5938 9.27083 17.9931 10.1042 18.2292ZM13.8958 18.2292C14.7292 17.9931 15.4792 17.5938 16.1458 17.0312C16.8125 16.4688 17.3472 15.7917 17.75 15H14.7708C14.6736 15.6528 14.5521 16.25 14.4062 16.7917C14.2604 17.3333 14.0903 17.8125 13.8958 18.2292ZM14.9583 13.5H18.3125C18.3819 13.2361 18.4306 12.9826 18.4583 12.7396C18.4861 12.4965 18.5 12.25 18.5 12C18.5 11.75 18.4861 11.5 18.4583 11.25C18.4306 11 18.3819 10.75 18.3125 10.5H14.9583C14.9861 10.7639 15.0035 11.0243 15.0104 11.2812C15.0174 11.5382 15.0208 11.7917 15.0208 12.0417C15.0208 12.2917 15.0174 12.5382 15.0104 12.7812C15.0035 13.0243 14.9861 13.2639 14.9583 13.5ZM10.5625 13.5H13.4375C13.4653 13.2222 13.4826 12.9618 13.4896 12.7188C13.4965 12.4757 13.5 12.2361 13.5 12C13.5 11.7639 13.4965 11.5208 13.4896 11.2708C13.4826 11.0208 13.4653 10.7639 13.4375 10.5H10.5625C10.5347 10.7639 10.5174 11.0208 10.5104 11.2708C10.5035 11.5208 10.5 11.7639 10.5 12C10.5 12.2361 10.5035 12.4792 10.5104 12.7292C10.5174 12.9792 10.5347 13.2361 10.5625 13.5ZM5.6875 13.5H9.04167C9.01389 13.2361 8.99653 12.9757 8.98958 12.7188C8.98264 12.4618 8.97917 12.2083 8.97917 11.9583C8.97917 11.7083 8.98264 11.4618 8.98958 11.2188C8.99653 10.9757 9.01389 10.7361 9.04167 10.5H5.6875C5.61806 10.7639 5.56944 11.0174 5.54167 11.2604C5.51389 11.5035 5.5 11.75 5.5 12C5.5 12.25 5.51389 12.4965 5.54167 12.7396C5.56944 12.9826 5.61806 13.2361 5.6875 13.5ZM14.7708 9H17.75C17.3472 8.20833 16.8125 7.53125 16.1458 6.96875C15.4792 6.40625 14.7292 6.00694 13.8958 5.77083C14.0903 6.1875 14.2604 6.66667 14.4062 7.20833C14.5521 7.75 14.6736 8.34722 14.7708 9ZM10.75 9H13.25C13.125 8.23611 12.9444 7.53125 12.7083 6.88542C12.4722 6.23958 12.2361 5.79861 12 5.5625C11.7639 5.79861 11.5278 6.23958 11.2917 6.88542C11.0556 7.53125 10.875 8.23611 10.75 9ZM6.25 9H9.22917C9.32639 8.34722 9.44792 7.75 9.59375 7.20833C9.73958 6.66667 9.90972 6.1875 10.1042 5.77083C9.27083 6.00694 8.52083 6.40625 7.85417 6.96875C7.1875 7.53125 6.65278 8.20833 6.25 9Z" fill="black" fill-opacity="0.87"/>
</svg>
