<svg width="32" height="28" viewBox="0 0 32 28" fill="none" xmlns="http://www.w3.org/2000/svg">
<path d="M26 0H3.2H3C1.34315 0 0 1.34315 0 3V7.73333C0 8.61699 0.716345 9.33333 1.6 9.33333C2.48366 9.33333 3.2 10.0497 3.2 10.9333V25C3.2 26.6569 4.54314 28 6.2 28H9.8C11.4569 28 12.8 26.6569 12.8 25V14.1333C12.8 11.4824 14.949 9.33333 17.6 9.33333H17.7333C20.3107 9.33333 22.4 11.4227 22.4 14V17.0667C22.4 17.9503 21.6837 18.6667 20.8 18.6667C19.9163 18.6667 19.2 19.383 19.2 20.2667V25C19.2 26.6569 20.5431 28 22.2 28H29C30.6569 28 32 26.6569 32 25V6C32 2.68629 29.3137 0 26 0Z" fill="black" fill-opacity="0.87"/>
</svg>
